<?xml version="1.0" standalone="no"?><!DOCTYPE svg PUBLIC "-//W3C//DTD SVG 1.1//EN" "http://www.w3.org/Graphics/SVG/1.1/DTD/svg11.dtd"><svg t="1618554465963" class="icon" viewBox="0 0 1024 1024" version="1.1" xmlns="http://www.w3.org/2000/svg" p-id="1246" xmlns:xlink="http://www.w3.org/1999/xlink" width="200" height="200"><defs><style type="text/css"></style></defs><path d="M292.534858 694.826287q0-30.271054-21.43933-51.710384t-51.710384-21.43933-51.710384 21.43933-21.43933 51.710384 21.43933 51.710384 51.710384 21.43933 51.710384-21.43933 21.43933-51.710384zM877.668573 694.826287q0-30.271054-21.43933-51.710384t-51.710384-21.43933-51.710384 21.43933-21.43933 51.710384 21.43933 51.710384 51.710384 21.43933 51.710384-21.43933 21.43933-51.710384zM851.365395 468.561357l-41.150714-219.417143q-2.847911-13.151589-12.863598-21.43933t-23.135277-8.287741l-524.559608 0q-13.151589 0-23.135277 8.287741t-12.863598 21.43933l-41.150714 219.417143q-2.847911 17.151464 7.99975 30.271054t27.999125 13.151589l606.829037 0q17.151464 0 27.999125-13.151589t7.99975-30.271054zM722.24943 118.844286q0-11.423643-7.99975-19.423393t-19.423393-7.99975l-365.716571 0q-11.423643 0-19.423393 7.99975t-7.99975 19.423393 7.99975 19.423393 19.423393 7.99975l365.716571 0q11.423643 0 19.423393-7.99975t7.99975-19.423393zM950.818287 533.13534l0 344.565232-73.149714 0 0 73.149714q0 30.271054-21.43933 51.710384t-51.710384 21.43933-51.710384-21.43933-21.43933-51.710384l0-73.149714-438.834286 0 0 73.149714q0 30.271054-21.43933 51.710384t-51.710384 21.43933-51.710384-21.43933-21.43933-51.710384l0-73.149714-73.149714 0 0-344.565232q0-63.998 14.271554-127.420018l58.846161-259.415893q5.151839-44.574607 55.710259-78.269554t131.419893-50.846411 178.55442-17.151464 178.55442 17.151464 131.419893 50.846411 55.710259 78.269554l59.998125 259.415893q13.151589 58.270179 13.151589 127.420018z" p-id="1247" fill="#996600"></path></svg>