<?xml version="1.0" standalone="no"?><!DOCTYPE svg PUBLIC "-//W3C//DTD SVG 1.1//EN" "http://www.w3.org/Graphics/SVG/1.1/DTD/svg11.dtd"><svg t="1618558272503" class="icon" viewBox="0 0 1024 1024" version="1.1" xmlns="http://www.w3.org/2000/svg" p-id="1074" xmlns:xlink="http://www.w3.org/1999/xlink" width="200" height="200"><defs><style type="text/css"></style></defs><path d="M546.273945 1024h-68.900232c-51.081206 0-92.658933-41.577726-92.658932-92.658933V92.658933c0-51.081206 41.577726-92.658933 92.658932-92.658933h68.900232c51.081206 0 92.658933 41.577726 92.658933 92.658933v839.870069c0 49.893271-41.577726 91.470998-92.658933 91.470998z" p-id="1075" fill="#1689d3"></path><path d="M972.742623 738.895592l-34.450116 60.584686c-24.946636 43.953596-81.967517 59.396752-125.921114 33.262181L85.355152 412.213457c-43.953596-24.946636-59.396752-81.967517-33.262181-125.921114L86.543087 225.707657c24.946636-43.953596 81.967517-59.396752 125.921113-33.262181l727.016242 419.341067c42.765661 26.134571 58.208817 83.155452 33.262181 127.109049z" p-id="1076" fill="#1689d3"></path><path d="M938.292507 226.895592l34.450116 60.584686c24.946636 43.953596 10.691415 100.974478-33.262181 125.921114L212.4642 832.742459c-43.953596 24.946636-100.974478 10.691415-125.921113-33.262181l-34.450116-60.584686C27.146335 694.941995 41.401555 637.921114 85.355152 612.974478l727.016241-419.341067c43.953596-26.134571 99.786543-10.691415 125.921114 33.262181z" p-id="1077" fill="#1689d3"></path></svg>