<?xml version="1.0" standalone="no"?><!DOCTYPE svg PUBLIC "-//W3C//DTD SVG 1.1//EN" "http://www.w3.org/Graphics/SVG/1.1/DTD/svg11.dtd"><svg t="1618558227225" class="icon" viewBox="0 0 1024 1024" version="1.1" xmlns="http://www.w3.org/2000/svg" p-id="881" xmlns:xlink="http://www.w3.org/1999/xlink" width="200" height="200"><defs><style type="text/css"></style></defs><path d="M841.142857 512q0-66.857143-26-127.714286t-70.285714-105.142857-105.142857-70.285714T512 182.857143t-127.714286 26-105.142857 70.285714-70.285714 105.142857T182.857143 512t26 127.714286 70.285714 105.142857 105.142857 70.285714T512 841.142857t127.714286-26 105.142857-70.285714 70.285714-105.142857T841.142857 512z m157.714286 158.285714q-2.285714 8.571429-11.428572 11.428572l-166.857142 54.857143v174.857142q0 9.142857-7.428572 14.857143-8.571429 5.714286-16.571428 2.285715l-166.857143-53.714286-102.857143 141.714286q-5.714286 7.428571-14.857143 7.428571t-14.857143-7.428571l-102.857143-141.714286-166.857143 53.714286q-8 3.428571-16.571428-2.285715-7.428571-5.714286-7.428572-14.857143v-174.857142l-166.857142-54.857143q-9.142857-2.857143-11.428572-11.428572-2.857143-9.714286 2.285714-16.571428l102.857143-141.714286L27.428571 370.285714q-5.142857-7.428571-2.285714-16.571428 2.285714-8.571429 11.428572-11.428572l166.857142-54.857143V112.571429q0-9.142857 7.428572-14.857143 8.571429-5.714286 16.571428-2.285715l166.857143 53.714286L497.142857 7.428571q5.142857-6.857143 14.857143-6.857142t14.857143 6.857142l102.857143 141.714286 166.857143-53.714286q8-3.428571 16.571428 2.285715 7.428571 5.714286 7.428572 14.857143v174.857142l166.857142 54.857143q9.142857 2.857143 11.428572 11.428572 2.857143 9.142857-2.285714 16.571428l-102.857143 141.714286 102.857143 141.714286q5.142857 6.857143 2.285714 16.571428z" p-id="882" fill="#ed4575"></path></svg>