<?xml version="1.0" standalone="no"?><!DOCTYPE svg PUBLIC "-//W3C//DTD SVG 1.1//EN" "http://www.w3.org/Graphics/SVG/1.1/DTD/svg11.dtd"><svg t="1618558295451" class="icon" viewBox="0 0 1024 1024" version="1.1" xmlns="http://www.w3.org/2000/svg" p-id="1269" xmlns:xlink="http://www.w3.org/1999/xlink" width="200" height="200"><defs><style type="text/css"></style></defs><path d="M694.856699 0c141.129042 0 255.999817 81.700513 255.999817 182.857012v511.999635c0 98.852501-109.129065 178.870729-246.271824 182.271869l121.709627 115.419346a18.175987 18.175987 0 0 1-12.580562 31.414835H210.285616a18.175987 18.175987 0 0 1-12.580562-31.414835l121.709627-115.419346C182.271922 873.690805 73.142857 793.709147 73.142857 694.856647V182.857012c0-101.156499 114.870775-182.857012 255.999817-182.857012h365.714025z m-182.857012 767.999451a109.750779 109.750779 0 0 0 0-219.428414 109.750779 109.750779 0 0 0 0 219.428414z m329.142622-329.142622V146.28561H182.857064v292.571219h658.285245z" fill="#0099ff" p-id="1270"></path></svg>